<?xml version="1.0" encoding="utf-8"?>
<!-- Generator: Adobe Illustrator 19.1.0, SVG Export Plug-In . SVG Version: 6.00 Build 0)  -->
<svg version="1.1" id="Layer_1" xmlns="http://www.w3.org/2000/svg" xmlns:xlink="http://www.w3.org/1999/xlink" x="0px" y="0px"
	 viewBox="-364 468 295 90" style="enable-background:new -364 468 295 90;" xml:space="preserve">
<style type="text/css">
	.st0{fill:#CF0A2C;}
	.st1{fill:#FFFFFF;}
</style>
<polygon class="st0" points="-319.9,485.1 -335.7,500.9 -316.1,520.4 -335.7,539.9 -319.9,555.7 -284.6,520.4 "/>
<path class="st0" d="M-337.6,480.2c0-8.9-6.2-10-7.3-10.2h-16.7v44l24,24.2V480.2L-337.6,480.2z"/>
<path class="st1" d="M-192.9,485.8"/>
<path class="st1" d="M-266.2,470.1H-277v40h10.8c5.6,0,10-4.4,10-10v-4.8c0-2.4-1-4.8-3.3-6.7c2.5-1.7,3.3-4.6,3.3-7v-2.1
	C-256.2,474-260.6,470.1-266.2,470.1z M-263,500.1c0,1.8-1.4,3.2-3.3,3.2h-4v-11.4h4h0.1c1.8,0,3.2,1.6,3.2,3.4
	C-263,495.3-263,500.1-263,500.1z M-263,482.1c0,1.7-1.5,3.1-3.3,3.1h-4v-8.4h4c1.8,0,3.3,1.6,3.3,3.4V482.1z"/>
<polygon class="st1" points="-235.1,535.7 -228.9,515.8 -236.3,515.8 -240.3,529.1 -244.1,515.8 -251.4,515.8 -245.2,535.8 
	-251.4,555.7 -244,555.7 -240.1,542.4 -236.2,555.7 -228.9,555.7 "/>
<path class="st1" d="M-152.5,540.3c-1.3-5.5-5.9-24.6-5.9-24.6h-6.8c0,0-4.5,19.5-6,24.7c-1.2,4.3-1.2,8.8-1.6,13.2l-0.2,2.1h7.3
	v-0.5l0.6-6.8h6.6l0.6,7.3h7.3l-0.3-2.3C-151.3,549.2-151.5,544.3-152.5,540.3z M-164.9,541.6l3-14.9l3.3,14.9H-164.9z"/>
<polygon class="st1" points="-189.8,503.4 -203.1,503.4 -203.1,491.9 -195.3,491.9 -192.9,491.9 -192.9,485.2 -203.1,485.2 
	-203.1,476.8 -189.8,476.8 -189.8,470.1 -209.8,470.1 -209.8,510.1 -189.8,510.1 "/>
<polygon class="st1" points="-277,515.8 -277,555.7 -259.4,555.7 -257.5,555.7 -256.9,555.7 -256.9,555.1 -256.9,553.3 
	-256.9,551.5 -256.9,549.6 -256.9,549 -257.5,549 -259.4,549 -270.2,549 -270.2,537.6 -260,537.6 -260,530.9 -270.2,530.9 
	-270.2,522.5 -256.9,522.5 -256.9,515.8 "/>
<path class="st1" d="M-217.7,515.8c-3.5,0-6.7,3-6.7,6.7v26.7c0,4.2,3.5,6.7,6.7,6.7h13.4V549h-10.9c-1.5,0-2.4-0.6-2.4-1.8v-22.9
	c0-1.3,0.4-1.8,1.9-1.8h11.4v-6.7H-217.7z"/>
<polygon class="st1" points="-184.9,515.8 -184.9,532 -191.5,532 -191.5,515.8 -198.2,515.8 -198.2,555.7 -191.5,555.7 
	-191.5,538.7 -184.9,538.7 -184.9,555.7 -178.2,555.7 -178.2,515.8 "/>
<path class="st1" d="M-111.3,515.8c-3.5,0-6.7,3-6.7,6.7v26.7c0,4.2,3.5,6.7,6.7,6.7H-98h0.1v-20.1h-9.2v6.5h2.6v6.7h-4.3
	c-1.4,0-2.4-0.6-2.4-1.8v-22.9c0-1.3,0.4-1.8,1.9-1.8h4.9v6.4h6.5v-13.1H-111.3z"/>
<polygon class="st1" points="-91.6,515.8 -91.6,555.7 -71.6,555.7 -71.6,551.5 -71.6,549 -84.9,549 -84.9,537.6 -77.1,537.6 
	-74.6,537.6 -74.6,530.9 -84.9,530.9 -84.9,522.5 -71.6,522.5 -71.6,515.8 "/>
<polygon class="st1" points="-230,492.5 -222,510.1 -214.7,510.1 -223.2,490.1 -223.2,490 -215.2,470.1 -222.6,470.1 -230,487.5 
	-230,470.1 -236.7,470.1 -236.7,510.1 -230,510.1 "/>
<rect x="-249.8" y="470.1" class="st1" width="6.8" height="40"/>
<path class="st1" d="M-124.9,515.8h-1.9h-1.7h-1.9h-0.6v0.4l0,0v0.1v15.5l-5.3-9.7l-0.7-4.6l-0.2-1.6h-8.3v40h6.7v-25.5
	c2.8,5.9,7.3,13,7.8,14.5v10.9h6.7v-37.6v-1.9v-0.6L-124.9,515.8L-124.9,515.8z"/>
</svg>
